<svg width="38" height="22" viewBox="0 0 38 22" fill="none" xmlns="http://www.w3.org/2000/svg">
<path fill-rule="evenodd" clip-rule="evenodd" d="M33.824 15.2285C33.824 15.2285 36.8963 18.2628 37.6563 19.6669C37.6772 19.6973 37.6867 19.7201 37.6905 19.7334C38.0002 20.2521 38.0762 20.6587 37.9242 20.9589C37.6677 21.4548 36.7994 21.7037 36.5049 21.7246C36.5049 21.7246 31.2267 21.7246 31.0747 21.7246C30.6966 21.7246 29.91 21.6258 28.9524 20.9646C28.2209 20.4535 27.4932 19.6118 26.7883 18.7891C25.7357 17.5674 24.8256 16.5072 23.9041 16.5072C23.7863 16.5072 23.6723 16.5262 23.5621 16.5642C22.8648 16.7846 21.9794 17.7783 21.9794 20.425C21.9794 21.2534 21.3258 21.7246 20.8679 21.7246C20.8679 21.7246 18.4967 21.7246 18.3808 21.7246C17.5334 21.7246 13.1216 21.4282 9.20948 17.3033C4.41578 12.2531 0.110371 2.1223 0.0685712 2.033C-0.199329 1.3775 0.363071 1.0203 0.971072 1.0203H6.45448C7.18978 1.0203 7.42918 1.4649 7.59638 1.8639C7.79018 2.3218 8.50838 4.1534 9.68638 6.21111C11.594 9.55891 12.7663 10.9212 13.703 10.9212C13.8797 10.9212 14.0469 10.8775 14.2046 10.7882C15.4282 10.1156 15.2002 5.74561 15.1432 4.84501C15.1432 4.6702 15.1413 2.8937 14.5143 2.0349C14.0659 1.4193 13.3021 1.1799 12.8404 1.0925C12.9639 0.9139 13.2261 0.6403 13.5624 0.4788C14.4003 0.0607998 15.9146 -1.44959e-08 17.4175 -1.44959e-08H18.2516C19.8818 0.0228 20.3036 0.1273 20.8964 0.2774C22.0896 0.5624 22.1124 1.3357 22.0079 3.9691C21.9775 4.7215 21.9452 5.5689 21.9452 6.56641C21.9452 6.77921 21.9357 7.01671 21.9357 7.25801C21.8996 8.60891 21.8521 10.1308 22.8059 10.7559C22.9275 10.8319 23.07 10.8737 23.2182 10.8737C23.5488 10.8737 24.5387 10.8737 27.2234 6.26621C28.4014 4.2313 29.3134 1.8316 29.3761 1.6511C29.4293 1.5504 29.5889 1.2673 29.7827 1.1533C29.9309 1.0621 30.1285 1.0469 30.2311 1.0469H36.6816C37.3846 1.0469 37.8615 1.1533 37.9546 1.4193C38.1104 1.8506 37.9242 3.1673 34.9792 7.14971C34.4833 7.81281 34.0482 8.38661 33.6663 8.88821C30.9968 12.3918 30.9968 12.5685 33.824 15.2285Z" fill="white"/>
</svg>
