<svg width="35" height="29" viewBox="0 0 35 29" fill="none" xmlns="http://www.w3.org/2000/svg">
<path d="M35 0.0159977C33.4765 1.09062 31.7897 1.91254 30.0045 2.45009C29.0464 1.3484 27.773 0.567553 26.3566 0.213153C24.9403 -0.141247 23.4492 -0.0521002 22.0851 0.468537C20.7211 0.989175 19.5498 1.91618 18.7297 3.12418C17.9097 4.33219 17.4804 5.7629 17.5 7.22282V8.81372C14.7042 8.88622 11.9338 8.26616 9.4357 7.00875C6.93755 5.75135 4.78914 3.89565 3.18182 1.60691C3.18182 1.60691 -3.18182 15.9251 11.1364 22.2887C7.85993 24.5128 3.95684 25.6279 0 25.4705C14.3182 33.4251 31.8182 25.4705 31.8182 7.17509C31.8167 6.73195 31.7741 6.2899 31.6909 5.85463C33.3146 4.25337 34.4604 2.23168 35 0.0159977Z" fill="white"/>
</svg>
