<svg width="35" height="35" viewBox="0 0 35 35" fill="none" xmlns="http://www.w3.org/2000/svg">
<path d="M34.8947 10.2848C34.8657 8.83301 34.5906 7.39668 34.0813 6.03688C33.6419 4.86916 32.953 3.81135 32.0628 2.9372C31.1887 2.04696 30.1308 1.35812 28.9631 0.918692C27.6033 0.409387 26.167 0.134349 24.7152 0.105272C22.8486 0.0201833 22.2527 0 17.5 0C12.7473 0 12.1514 0.0201833 10.2848 0.105272C8.83301 0.134349 7.39668 0.409387 6.03688 0.918692C4.86916 1.35812 3.81135 2.04696 2.9372 2.9372C2.04696 3.81135 1.35812 4.86916 0.918692 6.03688C0.409387 7.39668 0.134349 8.83301 0.105272 10.2848C0.0201833 12.1514 0 12.7473 0 17.5C0 22.2527 0.0201833 22.8486 0.105272 24.7152C0.134349 26.167 0.409387 27.6033 0.918692 28.9631C1.35812 30.1308 2.04696 31.1887 2.9372 32.0628C3.81132 32.9531 4.86914 33.6419 6.03688 34.0813C7.39668 34.5906 8.83301 34.8657 10.2848 34.8947C12.1514 34.98 12.7473 35 17.5 35C22.2527 35 22.8486 34.98 24.7152 34.8947C26.167 34.8657 27.6033 34.5906 28.9631 34.0813C30.1256 33.6317 31.1814 32.9442 32.0628 32.0628C32.9442 31.1814 33.6317 30.1257 34.0813 28.9631C34.5906 27.6033 34.8656 26.167 34.8947 24.7153C34.9798 22.8486 35 22.2527 35 17.5C35 12.7473 34.9798 12.1514 34.8947 10.2848ZM31.7449 24.5715C31.7317 25.6812 31.5279 26.7804 31.1422 27.821C30.8511 28.5757 30.4052 29.2612 29.8332 29.8332C29.2612 30.4052 28.5757 30.8511 27.821 31.1422C26.7804 31.5279 25.6812 31.7317 24.5715 31.7449C22.7264 31.829 22.173 31.8468 17.5 31.8468C12.827 31.8468 12.2736 31.829 10.4285 31.7449C9.3188 31.7317 8.21964 31.5279 7.17904 31.1422C6.4189 30.8617 5.73131 30.4144 5.16684 29.8332C4.58558 29.2687 4.13825 28.5811 3.85778 27.821C3.47211 26.7804 3.26825 25.6812 3.25512 24.5715C3.171 22.7262 3.15319 22.1728 3.15319 17.5C3.15319 12.8272 3.171 12.2738 3.25514 10.4285C3.26828 9.3188 3.47213 8.21964 3.85778 7.17904C4.13825 6.4189 4.58557 5.73131 5.16682 5.16684C5.73129 4.58558 6.41889 4.13825 7.17904 3.85778C8.21964 3.47212 9.3188 3.26827 10.4285 3.25512C12.2738 3.171 12.8272 3.15319 17.5 3.15319C22.1728 3.15319 22.7262 3.171 24.5715 3.25514C25.6812 3.26828 26.7804 3.47214 27.821 3.8578C28.5811 4.13827 29.2687 4.58559 29.8332 5.16684C30.4144 5.73131 30.8617 6.4189 31.1422 7.17904C31.5279 8.21964 31.7317 9.3188 31.7449 10.4285C31.829 12.2738 31.8468 12.8273 31.8468 17.5C31.8468 22.1727 31.829 22.7262 31.7449 24.5715ZM17.5 8.51348C15.7226 8.51348 13.9852 9.04053 12.5074 10.028C11.0295 11.0154 9.8777 12.4189 9.19754 14.061C8.51737 15.7031 8.3394 17.51 8.68615 19.2532C9.0329 20.9964 9.88878 22.5976 11.1456 23.8544C12.4024 25.1112 14.0036 25.9671 15.7468 26.3138C17.49 26.6606 19.2969 26.4826 20.939 25.8025C22.5811 25.1223 23.9846 23.9705 24.972 22.4926C25.9595 21.0148 26.4865 19.2774 26.4865 17.5C26.4865 15.1166 25.5397 12.8309 23.8544 11.1456C22.1691 9.4603 19.8834 8.5135 17.5 8.51348ZM17.5 23.3333C16.3463 23.3333 15.2185 22.9912 14.2592 22.3502C13.2999 21.7093 12.5522 20.7982 12.1107 19.7323C11.6692 18.6664 11.5537 17.4935 11.7788 16.362C12.0038 15.2304 12.5594 14.191 13.3752 13.3752C14.191 12.5594 15.2304 12.0038 16.362 11.7788C17.4935 11.5537 18.6664 11.6692 19.7323 12.1107C20.7982 12.5522 21.7093 13.2999 22.3502 14.2592C22.9912 15.2185 23.3333 16.3463 23.3333 17.5C23.3333 19.0471 22.7188 20.5308 21.6248 21.6248C20.5308 22.7188 19.0471 23.3333 17.5 23.3333ZM28.9415 8.1585C28.9415 8.57384 28.8184 8.97985 28.5876 9.3252C28.3569 9.67054 28.0289 9.9397 27.6452 10.0986C27.2614 10.2576 26.8392 10.2992 26.4318 10.2181C26.0245 10.1371 25.6503 9.93711 25.3566 9.64342C25.0629 9.34973 24.8629 8.97555 24.7819 8.56819C24.7009 8.16083 24.7424 7.73859 24.9014 7.35486C25.0603 6.97114 25.3295 6.64317 25.6748 6.41241C26.0202 6.18166 26.4262 6.0585 26.8415 6.0585C27.3985 6.0585 27.9326 6.27975 28.3265 6.67358C28.7203 7.0674 28.9415 7.60154 28.9415 8.1585Z" fill="white"/>
</svg>
