<svg width="18" height="27" viewBox="0 0 18 27" fill="none" xmlns="http://www.w3.org/2000/svg">
<path d="M12.6 4.91035V17.1862H5.4V4.91035H12.6ZM15.3 0H2.7C1.20937 0 0 1.09971 0 2.45517V23.7333C0 25.0888 1.20937 26.1885 2.7 26.1885H15.3C16.7906 26.1885 18 25.0888 18 23.7333V2.45517C18 1.09971 16.7906 0 15.3 0ZM2.7 24.5517C2.205 24.5517 1.8 24.1834 1.8 23.7333V2.45517C1.8 2.00506 2.205 1.63678 2.7 1.63678H15.3C15.795 1.63678 16.2 2.00506 16.2 2.45517V23.7333C16.2 24.1834 15.795 24.5517 15.3 24.5517H2.7ZM13.725 3.27356H4.275C3.90375 3.27356 3.6 3.54977 3.6 3.88736V18.2092C3.6 18.5468 3.90375 18.823 4.275 18.823H13.725C14.0962 18.823 14.4 18.5468 14.4 18.2092V3.88736C14.4 3.54977 14.0962 3.27356 13.725 3.27356ZM11.025 21.2782H6.975C6.60375 21.2782 6.3 21.5544 6.3 21.892V22.3012C6.3 22.6387 6.60375 22.9149 6.975 22.9149H11.025C11.3962 22.9149 11.7 22.6387 11.7 22.3012V21.892C11.7 21.5544 11.3962 21.2782 11.025 21.2782Z" fill="#30233D"/>
</svg>
