<svg width="73" height="72" viewBox="0 0 73 72" fill="none" xmlns="http://www.w3.org/2000/svg">
<circle cx="36.5" cy="36" r="36" fill="#F67110" fill-opacity="0.1"/>
<circle cx="36.5" cy="36" r="35.5" stroke="#F67110" stroke-opacity="0.25"/>
<path d="M29.125 32.5C29.1381 35.0987 29.0927 40.4288 26.7658 48.25H47.2329C44.9081 40.4579 44.8623 35.1151 44.875 32.5L47.7558 29.6192C47.9125 29.4625 48.0368 29.2765 48.1216 29.0717C48.2064 28.867 48.25 28.6476 48.25 28.426V20.6875C48.25 19.7555 47.4945 19 46.5625 19H27.4375C26.5055 19 25.75 19.7555 25.75 20.6875V28.426C25.75 28.8736 25.9278 29.3028 26.2442 29.6193L29.125 32.5ZM28 21.25H31.375V24.625H33.625V21.25H40.375V24.625H42.625V21.25H46V28.193L42.6295 31.5635C42.6156 34.4394 42.5483 39.0403 44.284 46H29.7131C31.4506 39.0256 31.3848 34.4373 31.3703 31.5634L28 28.193V21.25ZM38.9688 37H35.0312V33.0625C35.0312 31.9752 35.9127 31.0938 37 31.0938C38.0873 31.0938 38.9688 31.9752 38.9688 33.0625V37ZM50.5 51.3438V51.9062C50.5 52.3722 50.1222 52.75 49.6562 52.75H24.3438C23.8778 52.75 23.5 52.3722 23.5 51.9062V51.3438C23.5 50.8778 23.8778 50.5 24.3438 50.5H49.6562C50.1222 50.5 50.5 50.8778 50.5 51.3438Z" fill="#F67110"/>
</svg>
