<svg width="73" height="72" viewBox="0 0 73 72" fill="none" xmlns="http://www.w3.org/2000/svg">
<circle cx="36.5" cy="36" r="36" fill="#00F0B5" fill-opacity="0.1"/>
<circle cx="36.5" cy="36" r="35.5" stroke="#00F0B5" stroke-opacity="0.25"/>
<path d="M50.2308 39.5624C49.4995 36.5022 47.4575 34.5446 47.1987 31.8106C47.0075 29.8586 48.3913 28.5817 48.2507 26.219C48.1044 23.7832 46.3999 22.0056 44.2004 22C42.0009 22.0056 40.302 23.7832 40.1558 26.219C40.0151 28.5817 41.3934 29.8643 41.2077 31.8106C40.949 34.5446 38.9013 36.5078 38.1757 39.5624C37.4725 42.5045 38.1982 47.4323 39.762 50.3237L40.0151 50.7963H48.3969L48.6501 50.3237C50.2083 47.4323 50.934 42.5045 50.2308 39.5624ZM46.4506 26.3259C46.5462 27.9348 45.5449 29.0992 45.3986 31.0006H43.0022C42.856 29.0936 41.849 27.9404 41.9503 26.3259C42.1528 22.9451 46.2481 22.9451 46.4506 26.3259ZM47.3 48.9961H41.1008C39.9195 46.4535 39.357 42.3188 39.9195 39.9787C40.5214 37.4585 42.2765 35.6471 42.8503 32.7951H45.5505C46.1243 35.6471 47.8794 37.4585 48.4813 39.9787C49.0382 42.3245 48.4757 46.4535 47.3 48.9961ZM32.7978 31.8163C32.6122 29.8643 33.9904 28.5873 33.8497 26.2247C33.7035 23.7832 31.999 22.0113 29.7995 22.0056C27.6 22.0056 25.9011 23.7832 25.7492 26.2247C25.603 28.5873 26.9868 29.8643 26.8012 31.8163C26.5424 34.5558 24.4948 36.5134 23.7691 39.568C23.0659 42.5101 23.7916 47.4435 25.3554 50.335L25.6086 50.8075H33.9904L34.2435 50.335C35.8074 47.4435 36.533 42.5157 35.8299 39.568C35.1042 36.5134 33.0566 34.5502 32.7978 31.8163ZM32.0496 26.3315C32.1453 27.946 31.1439 29.0936 30.9977 31.0006H28.6013C28.455 29.0936 27.4481 27.946 27.5493 26.3315C27.7518 22.9507 31.8471 22.9507 32.0496 26.3315ZM32.8991 49.0018H26.6999C25.5186 46.4591 24.956 42.3245 25.5186 39.9843C26.1205 37.4641 27.8812 35.6528 28.4494 32.8007H31.1496C31.7234 35.6528 33.4785 37.4641 34.0804 39.9843C34.6429 42.3245 34.0804 46.4591 32.8991 49.0018Z" fill="#00F0B5"/>
</svg>
