<svg width="73" height="72" viewBox="0 0 73 72" fill="none" xmlns="http://www.w3.org/2000/svg">
<circle cx="36.5" cy="36" r="36" fill="#F61067" fill-opacity="0.1"/>
<circle cx="36.5" cy="36" r="35.5" stroke="#F61067" stroke-opacity="0.25"/>
<path d="M36.9999 33.0535C35.1388 33.0535 33.6243 34.5675 33.6243 36.4285C33.6243 38.2896 35.1388 39.8035 36.9999 39.8035C38.861 39.8035 40.3755 38.2896 40.3755 36.4285C40.3755 34.5675 38.861 33.0535 36.9999 33.0535ZM36.9999 37.8749C36.2008 37.8749 35.5535 37.2271 35.5535 36.4285C35.5535 35.6294 36.2014 34.9821 36.9999 34.9821C37.7985 34.9821 38.4463 35.6294 38.4463 36.4285C38.4463 37.2271 37.7991 37.8749 36.9999 37.8749ZM48.3736 36.4285C49.3108 35.2069 49.9834 33.9804 50.2968 32.8125C50.6602 31.4498 50.5342 30.1956 49.9315 29.185C48.8329 27.3468 46.2938 26.5959 43.09 26.8689C41.6887 23.2793 39.504 21 36.9999 21C34.4958 21 32.3111 23.2787 30.9105 26.8683C27.706 26.5953 25.1676 27.3462 24.0701 29.1856C23.4656 30.1956 23.3396 31.4498 23.7031 32.8125C24.0165 33.9804 24.689 35.2069 25.6262 36.4285C24.689 37.6501 24.0165 38.8766 23.7031 40.0446C23.3396 41.4072 23.4656 42.6614 24.0683 43.6721C25.0235 45.2692 27.0576 46.0539 29.6762 46.0539C30.0595 46.0539 30.4898 45.9846 30.8966 45.9508C32.2966 49.5621 34.4874 51.857 36.9999 51.857C39.5125 51.857 41.7032 49.5621 43.1032 45.9508C43.51 45.9846 43.9403 46.0539 44.3236 46.0539C46.9399 46.0539 48.9763 45.2692 49.9297 43.6721C50.5342 42.6614 50.6608 41.4072 50.2968 40.0446C49.9834 38.8766 49.3108 37.6501 48.3736 36.4285ZM25.5677 32.3134C25.3363 31.4546 25.3906 30.7344 25.7262 30.1739C26.2819 29.2416 27.6982 28.7287 29.6521 28.7287C29.8528 28.7287 30.0697 28.745 30.2813 28.7558C29.9468 29.9443 29.6925 31.2371 29.5237 32.6057C28.5576 33.3531 27.6753 34.1293 26.9129 34.923C26.2668 34.025 25.7895 33.1403 25.5677 32.3134ZM29.3122 37.5573C28.8993 37.1837 28.5154 36.8076 28.1592 36.4285C28.5148 36.0494 28.8993 35.6734 29.3122 35.2997C29.2995 35.674 29.2844 36.0464 29.2844 36.4285C29.2844 36.8106 29.2989 37.1831 29.3122 37.5573ZM25.7244 42.6831C25.3912 42.1226 25.3363 41.4024 25.5683 40.5436C25.7901 39.7167 26.2674 38.832 26.9129 37.934C27.6753 38.7277 28.5582 39.504 29.5237 40.2513C29.6925 41.6218 29.9474 42.9151 30.2819 44.1048C28.0086 44.2223 26.3398 43.7119 25.7244 42.6831ZM42.2854 31.0683C41.7803 30.7477 41.2669 30.4313 40.7293 30.1318C40.3418 29.9154 39.9542 29.7153 39.5673 29.52C40.3351 29.2898 41.0692 29.1175 41.7713 28.9897C41.9765 29.6738 42.1481 30.3675 42.2854 31.0683ZM36.9999 22.9286C38.4506 22.9286 39.9844 24.4973 41.1102 27.1455C39.8018 27.4052 38.4174 27.8181 37.0005 28.3719C35.583 27.8181 34.1987 27.404 32.8897 27.1443C34.0155 24.4967 35.5493 22.9286 36.9999 22.9286ZM32.2285 28.9897C32.9306 29.1175 33.6647 29.2892 34.4319 29.52C34.045 29.7153 33.6575 29.9154 33.2706 30.1318C32.733 30.4313 32.2195 30.7477 31.7144 31.0683C31.8518 30.3675 32.0233 29.6738 32.2285 28.9897ZM31.7144 41.7887C32.2195 42.1094 32.733 42.4258 33.2706 42.7253C33.6755 42.9513 34.0769 43.1164 34.4813 43.3195C33.6978 43.5564 32.9451 43.739 32.2291 43.8698C32.0339 43.2171 31.8585 42.5258 31.7144 41.7887ZM36.9999 49.9285C35.5438 49.9285 34.0034 48.3477 32.8764 45.6808C34.1914 45.4223 35.5746 45.0124 36.9999 44.4562C38.4252 45.013 39.8084 45.4223 41.1234 45.6808C39.9964 48.3477 38.456 49.9285 36.9999 49.9285ZM41.7713 43.8692C41.0559 43.739 40.3038 43.5564 39.5203 43.3195C39.9241 43.1164 40.3255 42.9513 40.7299 42.7259C41.2675 42.4264 41.7809 42.11 42.286 41.7893C42.1413 42.5252 41.9666 43.2159 41.7713 43.8692ZM42.6566 39.2051C41.7671 39.8511 40.813 40.4725 39.7915 41.042C38.8453 41.57 37.913 42.0177 37.0011 42.4041C36.0887 42.0177 35.1557 41.57 34.2083 41.042C33.1868 40.4719 32.2327 39.8511 31.3432 39.2051C31.2594 38.3179 31.213 37.3922 31.213 36.4285C31.213 35.4648 31.2594 34.5391 31.3432 33.652C32.2327 33.0059 33.1868 32.3846 34.2083 31.815C35.1539 31.2877 36.0881 30.8339 36.9993 30.4476C37.9112 30.8339 38.8453 31.2877 39.7915 31.815C40.813 32.3852 41.7671 33.0059 42.6566 33.652C42.7398 34.5391 42.7868 35.4648 42.7868 36.4285C42.7868 37.3922 42.7398 38.3179 42.6566 39.2051ZM44.3484 28.7281C46.3016 28.7281 47.7185 29.2416 48.276 30.1733C48.6093 30.7338 48.6641 31.454 48.4321 32.3128C48.2103 33.1397 47.733 34.0244 47.0875 34.9224C46.3251 34.1287 45.4422 33.3525 44.4767 32.6051C44.308 31.2359 44.0536 29.9437 43.7192 28.7552C43.9307 28.7444 44.1477 28.7281 44.3484 28.7281ZM44.6877 35.2997C45.1005 35.6734 45.4844 36.0494 45.8406 36.4285C45.4844 36.8076 45.1005 37.1837 44.6877 37.5573C44.7003 37.1831 44.7154 36.8106 44.7154 36.4285C44.7154 36.0464 44.7009 35.674 44.6877 35.2997ZM48.2736 42.6831C47.6613 43.7119 45.9925 44.2223 43.718 44.1036C44.053 42.9139 44.3074 41.6212 44.4761 40.2513C45.4422 39.504 46.3245 38.7277 47.0869 37.934C47.7324 38.832 48.2103 39.7167 48.4315 40.5436C48.6635 41.4024 48.6093 42.1226 48.2736 42.6831Z" fill="#F61067"/>
</svg>
