<svg width="73" height="72" viewBox="0 0 73 72" fill="none" xmlns="http://www.w3.org/2000/svg">
<circle cx="36.5" cy="36" r="36" fill="#00F0B5" fill-opacity="0.1"/>
<circle cx="36.5" cy="36" r="35.5" stroke="#00F0B5" stroke-opacity="0.25"/>
<path d="M45.4286 32.3947L43.367 30.5055L44.4207 29.5399C44.9658 29.0403 44.9658 28.2305 44.4207 27.731L42.9405 26.3745C42.6679 26.1247 42.3108 26 41.9536 26C41.5964 26 41.2392 26.1247 40.9667 26.3745L39.913 27.3401L38.8598 26.3745C38.5872 26.1247 38.23 26 37.8729 26C37.5157 26 37.1585 26.1247 36.8859 26.3745L32.6778 30.2309C32.1327 30.7305 32.1327 31.5402 32.6778 32.0394L33.7315 33.005L22.9089 42.9231C22.3637 43.4227 22.3637 44.2325 22.9089 44.732L24.389 46.0885C24.6616 46.3383 25.0188 46.463 25.376 46.463C25.7331 46.463 26.0903 46.3383 26.3629 46.0885L37.1855 36.1703L39.2471 38.0596V42.6262H40.6426C46.0378 42.6262 50.4116 38.6179 50.4116 33.6736V32.3947H45.4286ZM41.9523 27.2789H41.9536L43.4338 28.6354L42.3801 29.601L40.8995 28.2437L41.9523 27.2789ZM25.376 45.1841L23.8958 43.8276L34.7184 33.9094L36.1986 35.2659L25.376 45.1841ZM40.6426 41.3472V37.53L33.6648 31.1353L37.8715 27.2789H37.8729L44.8507 33.6736H49.016C49.016 37.9049 45.2598 41.3472 40.6426 41.3472Z" fill="#00F0B5"/>
</svg>
