<svg width="73" height="72" viewBox="0 0 73 72" fill="none" xmlns="http://www.w3.org/2000/svg">
<circle cx="36.5" cy="36" r="36" fill="#F61067" fill-opacity="0.1"/>
<circle cx="36.5" cy="36" r="35.5" stroke="#F61067" stroke-opacity="0.25"/>
<path d="M48.7951 34.4293C49.6642 31.7264 47.7985 29.8056 46.7572 29.2026C46.8897 27.3334 45.4737 25.5139 43.4477 25.2622C42.8546 23.9048 41.5066 23 39.9889 23C38.7684 23 37.6929 23.5881 37 24.484C36.3071 23.5881 35.2316 23 34.0111 23C32.4934 23 31.1454 23.9048 30.5518 25.2622C28.5258 25.5139 27.1098 27.3334 27.2423 29.2026C26.201 29.8061 24.3358 31.7264 25.2044 34.4293C24.1398 35.28 23.5 36.5715 23.5 37.9393C23.5 39.5638 24.3641 41.0354 25.7464 41.837C25.6332 44.2283 27.5674 46.2389 29.9621 46.1773C30.6689 47.5362 32.076 48.4118 33.6374 48.4118C35.0222 48.4118 36.2436 47.7268 37 46.6865C37.7564 47.7268 38.9778 48.4118 40.3626 48.4118C41.924 48.4118 43.3311 47.5362 44.0379 46.1773C46.4326 46.2389 48.3663 44.2278 48.2536 41.837C49.6359 41.0354 50.5 39.5638 50.5 37.9393C50.5 36.5715 49.8602 35.28 48.7951 34.4293ZM36.2029 29.8527C36.2029 31.1476 35.3065 32.2291 34.101 32.5349C33.9288 32.5785 33.8116 32.7379 33.8116 32.9151V33.7181C33.8116 33.9697 34.0444 34.1603 34.2921 34.1097C35.0083 33.9638 35.6589 33.6427 36.2029 33.197V44.2675C36.2029 45.6765 35.0524 46.8235 33.6374 46.8235C32.0546 46.8235 31.4422 45.741 31.0019 44.4312C30.1934 44.5672 30.0942 44.5901 29.9011 44.5901C28.4861 44.5901 27.3356 43.4431 27.3356 42.034C27.3356 41.7258 27.3783 41.5804 27.5177 40.894C26.2551 40.3728 25.0937 39.6924 25.0937 37.9393C25.0937 36.2588 26.2357 35.6091 27.2234 35.0438C26.5981 33.7677 26.5881 33.5945 26.5881 33.1002C26.5881 31.4172 27.6751 30.695 29.0385 30.1376C28.9139 29.5966 28.83 29.3132 28.83 29.0055C28.83 27.8074 29.8028 26.8316 31.0873 26.8316H31.1076L31.7395 26.845C32.0328 25.706 32.4854 24.5882 34.0111 24.5882C35.2192 24.5882 36.2029 25.5675 36.2029 26.7721V29.8527ZM46.4823 40.894C46.6217 41.5804 46.6644 41.7258 46.6644 42.034C46.6644 43.4431 45.5139 44.5901 44.0989 44.5901C43.9063 44.5901 43.8071 44.5672 42.9981 44.4312C42.5578 45.741 41.9454 46.8235 40.3626 46.8235C38.9476 46.8235 37.7971 45.6765 37.7971 44.2675V33.197C38.3411 33.6427 38.9917 33.9638 39.7079 34.1097C39.9556 34.1603 40.1884 33.9697 40.1884 33.7181V32.9151C40.1884 32.7379 40.0712 32.5785 39.899 32.5349C38.6935 32.2291 37.7971 31.1476 37.7971 29.8527V26.7721C37.7971 25.5675 38.7808 24.5882 39.9889 24.5882C41.5146 24.5882 41.9672 25.706 42.26 26.845L42.8919 26.8316H42.9122C44.1967 26.8316 45.1695 27.8074 45.1695 29.0055C45.1695 29.3132 45.0851 29.5971 44.961 30.1376C46.3239 30.6945 47.4114 31.4172 47.4114 33.1002C47.4114 33.5945 47.4015 33.7677 46.7761 35.0438C47.7638 35.6091 48.9058 36.2588 48.9058 37.9393C48.9058 39.6928 47.7449 40.3733 46.4823 40.894Z" fill="#F61067"/>
</svg>
