<svg width="73" height="72" viewBox="0 0 73 72" fill="none" xmlns="http://www.w3.org/2000/svg">
<circle cx="36.5" cy="36" r="36" fill="#F67110" fill-opacity="0.1"/>
<circle cx="36.5" cy="36" r="35.5" stroke="#F67110" stroke-opacity="0.25"/>
<path d="M50.2637 35.4241L45.6632 28.0004C45.5294 27.8004 45.3147 27.7 45.1 27.7C44.8852 27.7 44.6705 27.8004 44.5368 28.0004L39.9362 35.4241C39.773 35.6679 39.6793 35.9607 39.7038 36.2526C39.9346 39.0231 42.2624 41.1999 45.1 41.1999C47.9375 41.1999 50.2654 39.0231 50.4961 36.2526C50.5206 35.9607 50.427 35.6679 50.2637 35.4241ZM45.1 39.8499C43.3458 39.8499 41.8283 38.7054 41.2702 37.1499H48.9145C48.3484 38.7206 46.8415 39.8499 45.1 39.8499ZM41.2917 35.8L45.1017 29.6507L48.9382 35.8H41.2917ZM46.1125 45.2499H37.675V30.3046C38.6154 30.0612 39.3503 29.3288 39.5996 28.391L45.8555 26.2977C46.0323 26.2386 46.1276 26.0471 46.0686 25.8707L45.8543 25.2308C45.7952 25.054 45.6037 24.9587 45.4273 25.0177L39.5878 26.9714C39.2684 25.8366 38.2369 25 37 25C35.5087 25 34.3 26.2087 34.3 27.7C34.3 28.0463 34.3705 28.3741 34.4915 28.6766L28.1445 30.8003C27.9677 30.8594 27.8724 31.0509 27.9314 31.2273L28.1457 31.8673C28.2048 32.044 28.3963 32.1394 28.5727 32.0803L35.3416 29.8157C35.6293 30.0418 35.9605 30.2097 36.3254 30.3042V46.2624C36.3254 46.4489 36.4765 46.5999 36.6629 46.5999H46.1129C46.2994 46.5999 46.4504 46.4489 46.4504 46.2624V45.5874C46.45 45.4009 46.2989 45.2499 46.1125 45.2499ZM35.65 27.7C35.65 26.9558 36.2558 26.35 37 26.35C37.7442 26.35 38.35 26.9558 38.35 27.7C38.35 28.4442 37.7442 29.05 37 29.05C36.2558 29.05 35.65 28.4442 35.65 27.7ZM29.4632 33.4003C29.3295 33.1999 29.1148 33.1 28.9 33.1C28.6853 33.1 28.4706 33.2004 28.3368 33.4003L23.7363 40.824C23.573 41.0679 23.4794 41.3607 23.5039 41.6526C23.7346 44.423 26.0625 46.5999 28.9 46.5999C31.7376 46.5999 34.0655 44.423 34.2962 41.6526C34.3207 41.3607 34.227 41.0679 34.0638 40.824L29.4632 33.4003ZM28.9 45.2499C27.1459 45.2499 25.6284 44.1054 25.0703 42.5499H32.7146C32.1485 44.1206 30.6415 45.2499 28.9 45.2499ZM25.0918 41.1999L28.9017 35.0507L32.7382 41.1999H25.0918Z" fill="#F67110"/>
</svg>
