<svg width="72" height="72" viewBox="0 0 72 72" fill="none" xmlns="http://www.w3.org/2000/svg">
<circle cx="36" cy="36" r="36" fill="#F7F3F1" fill-opacity="0.36"/>
<circle cx="36" cy="36" r="35.5" stroke="#ED5E0D" stroke-opacity="0.5"/>
<g opacity="0.5">
<path d="M50.2651 36.6923C50.2651 28.7588 44.0968 23.959 36.5004 23.959C28.9041 23.9392 22.7358 28.7786 22.7358 36.7121C22.7358 41.5317 25.0167 46.629 28.5273 49.6041H44.4934C47.9842 46.629 50.2651 41.5119 50.2651 36.6923Z" fill="#F7F3F1"/>
<path d="M44.6712 50.001H28.348L28.2092 49.882C24.5796 46.8078 22.2393 41.6114 22.2393 36.6529C22.2393 32.706 23.6871 29.3541 26.444 26.9344C29.0224 24.6734 32.5925 23.4238 36.4997 23.4238C44.8894 23.4238 50.7602 28.8583 50.7602 36.6331C50.7602 41.5915 48.4198 46.8078 44.7902 49.882L44.6712 50.001ZM28.7051 49.0093H44.2944C47.6264 46.0938 49.7685 41.2742 49.7685 36.6331C49.7685 29.4334 44.3142 24.4155 36.4997 24.4155C28.6852 24.4155 23.2309 29.4533 23.2309 36.6529C23.2309 41.2742 25.373 46.0938 28.7051 49.0093Z" fill="#ED5E0D"/>
<path d="M48.4001 26.3184C48.4001 27.2505 47.6464 27.9844 46.734 27.9844H25.2739C24.3418 27.9844 23.6079 27.2307 23.6079 26.3184V23.502C23.6079 22.5698 24.3616 21.8359 25.2739 21.8359H46.7142C47.6464 21.8359 48.3802 22.5896 48.3802 23.502V26.3184H48.4001Z" fill="#F7F3F1"/>
<path d="M46.8133 28.3823H25.3731C24.183 28.3823 23.2112 27.4105 23.2112 26.2205V23.4041C23.2112 22.214 24.183 21.2422 25.3731 21.2422H46.8133C48.0033 21.2422 48.9752 22.214 48.9752 23.4041V26.2006C48.995 27.4105 48.0232 28.3823 46.8133 28.3823ZM25.3731 22.2339C24.7185 22.2339 24.2029 22.7694 24.2029 23.4041V26.2006C24.2029 26.8551 24.7384 27.3708 25.3731 27.3708H46.8133C47.4678 27.3708 47.9835 26.8353 47.9835 26.2006V23.4041C47.9835 22.7496 47.448 22.2339 46.8133 22.2339H25.3731Z" fill="#ED5E0D"/>
<path d="M33.5244 39.8451L36.4003 38.2188L39.2762 39.8451V43.0978L36.4003 44.7242L33.5244 43.0978V39.8451Z" fill="#F7F3F1"/>
<path d="M36.4998 45.0626L33.3264 43.2776V39.6678L36.4998 37.8828L39.6732 39.6678V43.2776L36.4998 45.0626ZM33.9214 42.9206L36.4998 44.3883L39.0782 42.9206V40.0249L36.4998 38.5572L33.9214 40.0249V42.9206Z" fill="#ED5E0D"/>
<path d="M30.7488 34.8881L33.6247 33.2617L36.5006 34.8881V38.1408L33.6247 39.7672L30.7488 38.1408V34.8881Z" fill="#F7F3F1"/>
<path d="M33.7232 40.1056L30.5498 38.3206V34.7108L33.7232 32.9258L36.8966 34.7108V38.3206L33.7232 40.1056ZM31.1448 37.9635L33.7232 39.4312L36.3016 37.9635V35.0678L33.7232 33.6001L31.1448 35.0678V37.9635Z" fill="#ED5E0D"/>
<path d="M36.4998 34.8881L39.3756 33.2617L42.2515 34.8881V38.1408L39.3756 39.7672L36.4998 38.1408V34.8881Z" fill="#F7F3F1"/>
<path d="M39.4742 40.1056L36.3008 38.3206V34.7108L39.4742 32.9258L42.6476 34.7108V38.3206L39.4742 40.1056ZM36.8958 37.9635L39.4742 39.4312L42.0526 37.9635V35.0678L39.4742 33.6001L36.8958 35.0678V37.9635Z" fill="#ED5E0D"/>
</g>
</svg>
