<svg width="72" height="72" viewBox="0 0 72 72" fill="none" xmlns="http://www.w3.org/2000/svg">
<circle cx="36" cy="36" r="36" fill="#F7F3F1" fill-opacity="0.36"/>
<circle cx="36" cy="36" r="35.5" stroke="#ED5E0D" stroke-opacity="0.5"/>
<g opacity="0.5">
<path d="M35.5644 33.0391C38.527 33.0391 40.9287 30.6173 40.9287 27.6299C40.9287 24.6425 38.527 22.2207 35.5644 22.2207C32.6018 22.2207 30.2002 24.6425 30.2002 27.6299C30.2002 30.6173 32.6018 33.0391 35.5644 33.0391Z" fill="#F7F3F1"/>
<path d="M35.5646 33.5518C32.3339 33.5518 29.6924 30.8882 29.6924 27.6304C29.6924 24.3726 32.3339 21.709 35.5646 21.709C38.7953 21.709 41.4368 24.3726 41.4368 27.6304C41.4368 30.8882 38.8156 33.5518 35.5646 33.5518ZM35.5646 22.7335C32.8825 22.7335 30.7083 24.9258 30.7083 27.6304C30.7083 30.335 32.8825 32.5274 35.5646 32.5274C38.2467 32.5274 40.4209 30.335 40.4209 27.6304C40.4209 24.9258 38.2467 22.7335 35.5646 22.7335Z" fill="#ED5E0D"/>
<path d="M43.6513 39.4735C43.6513 42.6903 42.229 47.1775 39.872 49.8206C38.6731 51.1729 35.6049 53.3653 35.6049 53.3653C35.6049 53.3653 32.3742 51.0705 31.1348 49.5748C28.8997 46.8907 27.5586 42.5879 27.5586 39.453C27.5586 34.597 30.769 30.6426 35.6049 30.6426C40.4409 30.6631 43.6513 34.597 43.6513 39.4735Z" fill="#F7F3F1"/>
<path d="M35.6256 54L35.3412 53.7951C35.1989 53.6927 32.0495 51.4389 30.7694 49.9226C28.3514 47.0336 27.0713 42.4645 27.0713 39.4731C27.0713 36.9529 27.9044 34.6171 29.408 32.896C30.9726 31.1134 33.1873 30.1504 35.6256 30.1504C38.0639 30.1504 40.2584 31.1339 41.8433 32.896C43.3469 34.5966 44.18 36.9324 44.18 39.4731C44.18 42.6079 42.8389 47.2795 40.2787 50.1685C39.0595 51.5413 36.0523 53.7132 35.9304 53.7951L35.6256 54ZM35.6256 31.1749C31.257 31.1749 28.0872 34.6581 28.0872 39.4731C28.0872 42.2801 29.2657 46.5624 31.5415 49.267C32.5168 50.4144 34.8129 52.156 35.6256 52.7502C36.4181 52.1765 38.5922 50.5373 39.5269 49.4924C41.9245 46.8083 43.164 42.4235 43.164 39.4731C43.1437 34.6581 39.9739 31.1749 35.6256 31.1749Z" fill="#ED5E0D"/>
<path d="M42.4527 34.6992H28.6357V35.7237H42.4527V34.6992Z" fill="#ED5E0D"/>
<path d="M43.8753 36.748H27.8232V37.7725H43.8753V36.748Z" fill="#ED5E0D"/>
<path d="M42.4528 39.6172H28.4326V40.6417H42.4528V39.6172Z" fill="#ED5E0D"/>
<path d="M43.469 42.2793H27.6201V43.3038H43.469V42.2793Z" fill="#ED5E0D"/>
<path d="M41.4364 47.1973H29.8545V48.2217H41.4364V47.1973Z" fill="#ED5E0D"/>
<path d="M42.656 44.5332H28.4326V45.5577H42.656V44.5332Z" fill="#ED5E0D"/>
<path d="M39.8114 49.2461H31.2773V50.2706H39.8114V49.2461Z" fill="#ED5E0D"/>
<path d="M50.7424 39.5763C50.7424 41.9121 48.1822 43.7971 45.0327 43.7971C41.8833 43.7971 35.625 41.9121 35.625 39.5763C35.625 37.2405 41.8833 35.3555 45.0327 35.3555C48.1822 35.3555 50.7424 37.2405 50.7424 39.5763Z" fill="#F7F3F1"/>
<path d="M45.0329 44.3079C42.0866 44.3079 35.1172 42.4638 35.1172 39.5748C35.1172 36.6858 42.0866 34.8418 45.0329 34.8418C48.4668 34.8418 51.2505 36.9727 51.2505 39.5748C51.2505 42.177 48.4668 44.3079 45.0329 44.3079ZM45.0329 35.8663C41.9241 35.8663 36.1331 37.7718 36.1331 39.5748C36.1331 41.3779 41.9241 43.2834 45.0329 43.2834C47.8979 43.2834 50.2346 41.6238 50.2346 39.5748C50.2346 37.5259 47.8979 35.8663 45.0329 35.8663Z" fill="#ED5E0D"/>
<path d="M20.5078 39.5763C20.5078 37.2405 23.068 35.3555 26.2175 35.3555C29.3669 35.3555 35.6252 37.2405 35.6252 39.5763C35.6252 41.9121 29.3669 43.7971 26.2175 43.7971C23.068 43.7971 20.5078 41.9121 20.5078 39.5763Z" fill="#F7F3F1"/>
<path d="M26.2176 44.3079C22.7837 44.3079 20 42.177 20 39.5748C20 36.9727 22.7837 34.8418 26.2176 34.8418C29.1639 34.8418 36.1333 36.6858 36.1333 39.5748C36.1333 42.4638 29.1639 44.3079 26.2176 44.3079ZM26.2176 35.8663C23.3526 35.8663 21.016 37.5259 21.016 39.5748C21.016 41.6238 23.3526 43.2834 26.2176 43.2834C29.3265 43.2834 35.1174 41.3779 35.1174 39.5748C35.1174 37.7718 29.3265 35.8663 26.2176 35.8663Z" fill="#ED5E0D"/>
<path d="M32.5978 23.5321C32.3134 23.5321 32.0898 23.3067 32.0898 23.0199V18.5122C32.0898 18.2254 32.3134 18 32.5978 18C32.8823 18 33.1058 18.2254 33.1058 18.5122V23.0199C33.1058 23.3067 32.8823 23.5321 32.5978 23.5321Z" fill="#ED5E0D"/>
<path d="M38.6935 23.5321C38.4091 23.5321 38.1855 23.3067 38.1855 23.0199V18.5122C38.1855 18.2254 38.4091 18 38.6935 18C38.978 18 39.2015 18.2254 39.2015 18.5122V23.0199C39.2015 23.3067 38.978 23.5321 38.6935 23.5321Z" fill="#ED5E0D"/>
<path d="M23.0685 43.5488C22.5808 41.6228 24.2877 39.5123 26.8885 38.8567C29.4893 38.1805 35.0568 38.4264 35.5444 40.3524C36.0321 42.2784 31.2571 45.1674 28.6563 45.8436C26.0554 46.4992 23.5562 45.4748 23.0685 43.5488Z" fill="#F7F3F1"/>
<path d="M27.0714 46.5421C24.816 46.5421 23.0076 45.3947 22.5809 43.6736C22.0322 41.4812 23.9016 39.084 26.7869 38.3464C27.6606 38.121 28.8798 37.998 30.1192 37.998C31.379 37.998 35.5444 38.162 36.0727 40.2109C36.4182 41.5837 34.9145 43.0179 33.5938 43.9605C32.1308 45.0054 30.2208 45.9479 28.8188 46.3167C28.2092 46.4602 27.6403 46.5421 27.0714 46.5421ZM30.0989 39.0225C28.9407 39.0225 27.8232 39.1455 27.0307 39.3503C24.694 39.9445 23.1498 41.7681 23.5765 43.4277C23.9016 44.6776 25.3036 45.5177 27.0917 45.5177C27.5794 45.5177 28.067 45.4562 28.5547 45.3332C29.8348 45.0054 31.6229 44.1244 32.9842 43.1409C34.4269 42.0959 35.2193 41.0715 35.0771 40.4773C34.8536 39.6372 32.7607 39.0225 30.0989 39.0225Z" fill="#ED5E0D"/>
<path d="M48.162 43.5488C48.6496 41.6228 46.9428 39.5123 44.342 38.8567C41.7411 38.1805 36.1737 38.4264 35.686 40.3524C35.1984 42.2784 39.9734 45.1674 42.5742 45.8436C45.175 46.4992 47.6743 45.4748 48.162 43.5488Z" fill="#F7F3F1"/>
<path d="M44.1592 46.5831C43.5903 46.5831 43.0011 46.4807 42.4321 46.3372C41.0301 45.9684 39.1201 45.0259 37.6571 43.9809C36.3364 43.0384 34.8125 41.6042 35.1782 40.2109C35.7065 38.162 39.8719 37.998 41.1317 37.998C42.3712 37.998 43.57 38.121 44.464 38.3464C47.329 39.084 49.2187 41.4812 48.6701 43.6941C48.2231 45.4152 46.4147 46.5831 44.1592 46.5831ZM41.1317 39.0225C38.4699 39.0225 36.377 39.6372 36.1738 40.4568C36.0113 41.0715 36.8241 42.0959 38.2667 43.1204C39.6281 44.1039 41.4162 44.9849 42.6963 45.3128C43.1839 45.4357 43.6716 45.4972 44.1592 45.4972C45.9473 45.4972 47.3493 44.6571 47.6744 43.4072C48.1011 41.7476 46.5366 39.924 44.2202 39.3299C43.4074 39.1455 42.2899 39.0225 41.1317 39.0225Z" fill="#ED5E0D"/>
</g>
</svg>
