<svg width="72" height="72" viewBox="0 0 72 72" fill="none" xmlns="http://www.w3.org/2000/svg">
<circle cx="36" cy="36" r="36" fill="#F7F3F1" fill-opacity="0.36"/>
<circle cx="36" cy="36" r="35.5" stroke="#ED5E0D" stroke-opacity="0.5"/>
<path d="M35.5159 54C33.1523 54 31.6882 52.4476 31.6882 49.9301C31.6882 47.2448 35.0139 44.2028 35.1603 44.0769L35.5159 43.7622L35.8714 44.0769C36.0178 44.2028 39.3435 47.2448 39.3435 49.9301C39.3435 52.4266 37.8794 54 35.5159 54ZM35.5159 45.1888C34.7001 46.007 32.734 48.1678 32.734 49.9301C32.734 52.5524 34.47 52.951 35.5159 52.951C36.5617 52.951 38.2977 52.5524 38.2977 49.9301C38.2977 48.2937 36.5408 46.1958 35.5159 45.1888ZM25.497 27.6084L28.9482 29.5385V33.4406L25.497 35.3916L22.0458 33.4406V29.5385L25.497 27.6084ZM25.497 26.3916L24.9741 26.6853L21.5438 28.6364L21 28.9301V29.5385V33.4406V34.049L21.5438 34.3427L24.9741 36.2937L25.497 36.5874L26.0199 36.2937L29.4502 34.3427L29.994 34.049V33.4406V29.5385V28.9301L29.4502 28.6364L26.0199 26.6853L25.497 26.3916ZM35.5368 27.6084L38.988 29.5385V33.4406L35.5368 35.3916L32.0856 33.4406V29.5385L35.5368 27.6084ZM35.5368 26.3916L35.0139 26.6853L31.5836 28.6364L31.0398 28.9301V29.5385V33.4406V34.049L31.5836 34.3427L35.0139 36.2937L35.5368 36.5874L36.0597 36.2937L39.4899 34.3427L40.0338 34.049V33.4406V29.5385V28.9301L39.4899 28.6364L36.0597 26.6853L35.5368 26.3916ZM45.5766 27.6084L49.0277 29.5385V33.4406L45.5766 35.3916L42.1254 33.4406V29.5385L45.5766 27.6084ZM45.5766 26.3916L45.0537 26.6853L41.6234 28.6364L41.0796 28.9301V29.5385V33.4406V34.049L41.6234 34.3427L45.0327 36.2937L45.5556 36.5874L46.0786 36.2937L49.5088 34.3427L50.0526 34.049V33.4406V29.5385V28.9301L49.5088 28.6364L46.0995 26.6853L45.5766 26.3916ZM30.5169 36L33.9681 37.9301V41.8322L30.5169 43.7832L27.0657 41.8322V37.9301L30.5169 36ZM30.5169 34.7832L29.994 35.0769L26.5637 37.028L26.0199 37.3217V37.9301V41.8322V42.4406L26.5637 42.7343L29.9731 44.6853L30.496 44.979L31.0189 44.6853L34.4491 42.7343L34.993 42.4406V41.8322V37.9301V37.3217L34.4491 37.028L31.0398 35.0769L30.5169 34.7832ZM40.5567 36L44.0078 37.9301V41.8322L40.5567 43.7832L37.1055 41.8322V37.9301L40.5567 36ZM40.5567 34.7832L40.0338 35.0769L36.6035 37.028L36.0597 37.3217V37.9301V41.8322V42.4406L36.6035 42.7343L40.0128 44.6853L40.5358 44.979L41.0587 44.6853L44.4889 42.7343L45.0327 42.4406V41.8322V37.9301V37.3217L44.4889 37.028L41.0796 35.0769L40.5567 34.7832ZM30.5169 19.2168L33.9681 21.1469V25.049L30.5169 27L27.0657 25.049V21.1469L30.5169 19.2168ZM30.5169 18L29.994 18.2937L26.5637 20.2448L26.0199 20.5385V21.1469V25.049V25.6573L26.5637 25.951L29.994 27.9021L30.5169 28.1958L31.0398 27.9021L34.47 25.951L35.0139 25.6573V25.049V21.1469V20.5385L34.47 20.2448L31.0398 18.2937L30.5169 18ZM40.5567 19.2168L44.0078 21.1469V25.049L40.5567 27L37.1055 25.049V21.1469L40.5567 19.2168ZM40.5567 18L40.0338 18.2937L36.6035 20.2448L36.0597 20.5385V21.1469V25.049V25.6573L36.6035 25.951L40.0338 27.9021L40.5567 28.1958L41.0796 27.9021L44.5098 25.951L45.0537 25.6573V25.049V21.1469V20.5385L44.5098 20.2448L41.0796 18.2937L40.5567 18Z" fill="#ED5E0D" fill-opacity="0.5"/>
</svg>
