<svg width="126" height="133" viewBox="0 0 126 133" fill="none" xmlns="http://www.w3.org/2000/svg">
<g filter="url(#filter0_d)">
<path d="M71.3362 7.63415C60.4284 7.95538 48.5827 33.3757 60.4951 41.1991C68.4367 46.4147 82.5458 26.1794 80.5748 16.436C79.5207 10.7304 75.9923 7.41407 71.3362 7.63415ZM95.5859 30.4664C88.2496 30.5739 79.8606 36.1428 76.0718 42.8397C74.5575 45.7367 73.9969 48.0504 73.885 50.7465C74.091 53.2483 74.8705 55.6182 76.348 57.3423C77.3766 58.6839 77.8877 58.8093 80.4434 59.4359C82.7434 59.9999 84.0213 60.3133 85.9348 60.2378C92.2489 59.8795 98.9239 55.7968 103.162 49.4823C104.745 47.4193 104.931 46.6481 105.554 44.0773C106.427 40.4781 106.476 38.0391 104.93 35.4811C104.35 34.5219 103.322 33.1802 102.617 32.7352C101.588 31.3935 98.0729 30.2591 95.5859 30.4664ZM34.9549 15.8716C29.4075 16.4178 23.8298 22.676 21.9608 30.3884C20.6526 35.7871 21.127 40.5334 23.7017 44.4331C25.2479 46.991 27.1055 48.2636 29.7234 48.6332C32.3414 49.0028 34.3795 48.4131 36.9847 46.6007C40.8613 44.0107 43.516 39.7592 44.8243 34.3606C46.0702 29.219 45.6582 24.2155 43.5945 20.4413C41.8551 17.5635 38.0153 15.5326 34.9549 15.8716ZM41.4858 52.6068C37.9765 52.5634 29.9486 54.4078 25.3676 56.5528C20.8488 58.4407 14.1738 62.5234 12.3353 64.5238C8.97614 68.3301 8.82113 74.5563 12.5428 78.1924C14.2758 79.9791 16.9001 81.4397 23.04 84.0347C33.8488 88.5915 36.0929 90.5036 40.9997 100.422C44.8091 108.165 46.4798 110.209 50.8867 111.017C57.7869 112.709 62.9159 106.068 65.1954 92.1926C68.3965 72.2786 65.2724 61.7077 54.7751 55.8654C50.873 54.0915 45.5061 52.7756 41.4858 52.6068ZM93.1784 66.0993C87.5624 65.8116 81.3234 68.0947 76.4372 72.6161C74.2809 74.8109 72.9535 76.9366 72.2683 79.7645C70.8977 85.4202 73.2169 89.2572 78.9703 91.2126C84.7237 93.1681 93.4497 90.6778 98.7783 85.4478C103.727 80.6694 104.904 74.6939 102.136 70.4746C100.527 68.1737 96.8809 66.4624 93.1784 66.0993Z" fill="#EF1366"/>
<path d="M71.3362 7.63415C60.4284 7.95538 48.5827 33.3757 60.4951 41.1991C68.4367 46.4147 82.5458 26.1794 80.5748 16.436C79.5207 10.7304 75.9923 7.41407 71.3362 7.63415ZM95.5859 30.4664C88.2496 30.5739 79.8606 36.1428 76.0718 42.8397C74.5575 45.7367 73.9969 48.0504 73.885 50.7465C74.091 53.2483 74.8705 55.6182 76.348 57.3423C77.3766 58.6839 77.8877 58.8093 80.4434 59.4359C82.7434 59.9999 84.0213 60.3133 85.9348 60.2378C92.2489 59.8795 98.9239 55.7968 103.162 49.4823C104.745 47.4193 104.931 46.6481 105.554 44.0773C106.427 40.4781 106.476 38.0391 104.93 35.4811C104.35 34.5219 103.322 33.1802 102.617 32.7352C101.588 31.3935 98.0729 30.2591 95.5859 30.4664ZM34.9549 15.8716C29.4075 16.4178 23.8298 22.676 21.9608 30.3884C20.6526 35.7871 21.127 40.5334 23.7017 44.4331C25.2479 46.991 27.1055 48.2636 29.7234 48.6332C32.3414 49.0028 34.3795 48.4131 36.9847 46.6007C40.8613 44.0107 43.516 39.7592 44.8243 34.3606C46.0702 29.219 45.6582 24.2155 43.5945 20.4413C41.8551 17.5635 38.0153 15.5326 34.9549 15.8716ZM41.4858 52.6068C37.9765 52.5634 29.9486 54.4078 25.3676 56.5528C20.8488 58.4407 14.1738 62.5234 12.3353 64.5238C8.97614 68.3301 8.82113 74.5563 12.5428 78.1924C14.2758 79.9791 16.9001 81.4397 23.04 84.0347C33.8488 88.5915 36.0929 90.5036 40.9997 100.422C44.8091 108.165 46.4798 110.209 50.8867 111.017C57.7869 112.709 62.9159 106.068 65.1954 92.1926C68.3965 72.2786 65.2724 61.7077 54.7751 55.8654C50.873 54.0915 45.5061 52.7756 41.4858 52.6068ZM93.1784 66.0993C87.5624 65.8116 81.3234 68.0947 76.4372 72.6161C74.2809 74.8109 72.9535 76.9366 72.2683 79.7645C70.8977 85.4202 73.2169 89.2572 78.9703 91.2126C84.7237 93.1681 93.4497 90.6778 98.7783 85.4478C103.727 80.6694 104.904 74.6939 102.136 70.4746C100.527 68.1737 96.8809 66.4624 93.1784 66.0993Z" stroke="white" stroke-width="3"/>
</g>
<defs>
<filter id="filter0_d" x="0.283691" y="0.12384" width="125.378" height="132.652" filterUnits="userSpaceOnUse" color-interpolation-filters="sRGB">
<feFlood flood-opacity="0" result="BackgroundImageFix"/>
<feColorMatrix in="SourceAlpha" type="matrix" values="0 0 0 0 0 0 0 0 0 0 0 0 0 0 0 0 0 0 127 0"/>
<feOffset dx="5" dy="7"/>
<feGaussianBlur stdDeviation="6.5"/>
<feColorMatrix type="matrix" values="0 0 0 0 0 0 0 0 0 0 0 0 0 0 0 0 0 0 0.41 0"/>
<feBlend mode="normal" in2="BackgroundImageFix" result="effect1_dropShadow"/>
<feBlend mode="normal" in="SourceGraphic" in2="effect1_dropShadow" result="shape"/>
</filter>
</defs>
</svg>
