<svg width="100" height="107" viewBox="0 0 100 107" fill="none" xmlns="http://www.w3.org/2000/svg">
<path d="M63.3362 1.63415C52.4284 1.95538 40.5827 27.3757 52.4951 35.1991C60.4367 40.4147 74.5458 20.1794 72.5748 10.436C71.5207 4.73045 67.9923 1.41407 63.3362 1.63415ZM87.5859 24.4664C80.2496 24.5739 71.8606 30.1428 68.0718 36.8397C66.5575 39.7367 65.9969 42.0504 65.885 44.7465C66.091 47.2483 66.8705 49.6182 68.348 51.3423C69.3766 52.6839 69.8877 52.8093 72.4434 53.4359C74.7434 53.9999 76.0213 54.3133 77.9348 54.2378C84.2489 53.8795 90.9239 49.7968 95.1616 43.4823C96.7445 41.4193 96.9314 40.6481 97.5544 38.0773C98.4265 34.4781 98.4761 32.0391 96.9299 29.4811C96.3501 28.5219 95.3215 27.1802 94.6171 26.7352C93.5885 25.3935 90.0729 24.2591 87.5859 24.4664ZM26.9549 9.87156C21.4075 10.4178 15.8298 16.676 13.9608 24.3884C12.6526 29.7871 13.127 34.5334 15.7017 38.4331C17.2479 40.991 19.1055 42.2636 21.7234 42.6332C24.3414 43.0028 26.3795 42.4131 28.9847 40.6007C32.8613 38.0107 35.516 33.7592 36.8243 28.3606C38.0702 23.219 37.6582 18.2155 35.5945 14.4413C33.8551 11.5635 30.0153 9.53257 26.9549 9.87156ZM33.4858 46.6068C29.9765 46.5634 21.9486 48.4078 17.3676 50.5528C12.8488 52.4407 6.17375 56.5234 4.33526 58.5238C0.976137 62.3301 0.821132 68.5563 4.54276 72.1924C6.27579 73.9791 8.9001 75.4397 15.04 78.0347C25.8488 82.5915 28.0929 84.5036 32.9997 94.4221C36.8091 102.165 38.4798 104.209 42.8867 105.017C49.7869 106.709 54.9159 100.068 57.1954 86.1926C60.3965 66.2786 57.2724 55.7077 46.7751 49.8654C42.873 48.0915 37.5061 46.7756 33.4858 46.6068ZM85.1784 60.0993C79.5624 59.8116 73.3234 62.0947 68.4372 66.6161C66.2809 68.8109 64.9535 70.9366 64.2683 73.7645C62.8977 79.4202 65.2169 83.2572 70.9703 85.2126C76.7237 87.1681 85.4497 84.6778 90.7783 79.4478C95.7267 74.6694 96.9039 68.6939 94.1359 64.4746C92.5275 62.1737 88.8809 60.4624 85.1784 60.0993Z" fill="#EF1366" stroke="white" stroke-width="3"/>
</svg>
