<svg width="15" height="16" viewBox="0 0 15 16" fill="none" xmlns="http://www.w3.org/2000/svg">
<path d="M9.57983 0.00159089C7.88217 0.0511766 6.03855 3.97511 7.89256 5.18275C9.12857 5.98785 11.3244 2.86428 11.0177 1.36027C10.8536 0.479544 10.3045 -0.0323801 9.57983 0.00159089ZM13.354 3.52603C12.2122 3.54263 10.9065 4.40226 10.3169 5.43601C10.0812 5.88319 9.99393 6.24035 9.97652 6.65653C10.0086 7.0427 10.1299 7.40853 10.3598 7.67466C10.5199 7.88176 10.5995 7.90111 10.9972 7.99784C11.3552 8.0849 11.5541 8.13327 11.8519 8.12161C12.8346 8.06632 13.8735 7.4361 14.533 6.46138C14.7794 6.14292 14.8085 6.02387 14.9054 5.62704C15.0412 5.07147 15.0489 4.69497 14.8082 4.30012C14.718 4.15205 14.5579 3.94495 14.4483 3.87625C14.2882 3.66915 13.741 3.49404 13.354 3.52603ZM3.91756 1.27314C3.05419 1.35746 2.18608 2.32349 1.89521 3.514C1.6916 4.34735 1.76543 5.08001 2.16616 5.68196C2.40679 6.07681 2.69591 6.27325 3.10336 6.3303C3.5108 6.38735 3.82801 6.29633 4.23347 6.01657C4.83682 5.61676 5.24999 4.9605 5.4536 4.12715C5.64751 3.33348 5.58339 2.56114 5.26221 1.97853C4.99149 1.53432 4.39387 1.22081 3.91756 1.27314ZM4.934 6.94368C4.38784 6.93698 3.1384 7.22169 2.42542 7.55279C1.72214 7.84421 0.683254 8.47443 0.397118 8.78321C-0.125685 9.37077 -0.14981 10.3319 0.429412 10.8931C0.699135 11.1689 1.10757 11.3944 2.06317 11.795C3.74541 12.4984 4.09468 12.7935 4.85835 14.3246C5.45124 15.5198 5.71126 15.8353 6.39714 15.96C7.47107 16.2212 8.26932 15.1962 8.62409 13.0542C9.12231 9.98026 8.63607 8.34852 7.00231 7.44669C6.395 7.17287 5.55972 6.96973 4.934 6.94368ZM12.9793 9.02641C12.1052 8.98201 11.1342 9.33443 10.3737 10.0324C10.0381 10.3712 9.83154 10.6993 9.72489 11.1358C9.51159 12.0088 9.87254 12.6011 10.768 12.903C11.6634 13.2048 13.0215 12.8204 13.8508 12.0131C14.621 11.2755 14.8042 10.3531 14.3734 9.70179C14.1231 9.34662 13.5555 9.08247 12.9793 9.02641Z" fill="#4757A0"/>
</svg>
