<svg width="32" height="35" viewBox="0 0 32 35" fill="none" xmlns="http://www.w3.org/2000/svg">
<path d="M20.325 0.503356C16.7726 0.607973 12.9148 8.88671 16.7943 11.4346C19.3807 13.1332 23.9757 6.54307 23.3338 3.36991C22.9905 1.51174 21.8414 0.431684 20.325 0.503356ZM28.2225 7.93922C25.8333 7.97426 23.1012 9.78791 21.8673 11.9689C21.3741 12.9124 21.1915 13.6659 21.1551 14.544C21.2222 15.3587 21.476 16.1305 21.9572 16.692C22.2922 17.129 22.4587 17.1698 23.291 17.3739C24.04 17.5575 24.4562 17.6596 25.0794 17.635C27.1357 17.5183 29.3096 16.1887 30.6897 14.1322C31.2052 13.4604 31.2661 13.2092 31.469 12.3719C31.753 11.1998 31.7692 10.4055 31.2656 9.57241C31.0768 9.26001 30.7418 8.82307 30.5124 8.67812C30.1774 8.24117 29.0324 7.87173 28.2225 7.93922ZM8.47654 3.18607C6.66991 3.36396 4.85337 5.40211 4.24472 7.91384C3.81866 9.67205 3.97314 11.2178 4.81168 12.4878C5.31522 13.3209 5.9202 13.7353 6.77279 13.8557C7.62539 13.976 8.28916 13.784 9.1376 13.1938C10.4001 12.3503 11.2647 10.9657 11.6908 9.20746C12.0965 7.53298 11.9623 5.90349 11.2903 4.6743C10.7238 3.73711 9.47324 3.07567 8.47654 3.18607ZM10.6035 15.1498C9.46062 15.1357 6.84612 15.7363 5.3542 16.4349C3.88256 17.0497 1.70866 18.3794 1.10991 19.0308C0.0159309 20.2705 -0.0345501 22.2982 1.17749 23.4824C1.74189 24.0643 2.59656 24.5399 4.59618 25.385C8.11631 26.8691 8.84717 27.4918 10.4452 30.722C11.6858 33.2437 12.2299 33.9093 13.6651 34.1725C15.9124 34.7236 17.5827 32.5609 18.3251 28.0419C19.3676 21.5564 18.3502 18.1137 14.9315 16.211C13.6607 15.6333 11.9128 15.2048 10.6035 15.1498ZM27.4384 19.5439C25.6094 19.4503 23.5776 20.1938 21.9863 21.6663C21.284 22.3811 20.8517 23.0734 20.6285 23.9943C20.1822 25.8363 20.9375 27.0859 22.8112 27.7227C24.685 28.3596 27.5268 27.5485 29.2622 25.8453C30.8738 24.2891 31.2572 22.343 30.3557 20.9689C29.8318 20.2195 28.6443 19.6622 27.4384 19.5439Z" fill="#4757A0"/>
</svg>
